<?xml version="1.0" encoding="utf-8"?>
<svg viewBox="161.069 174.81 70.229 19.084" xmlns="http://www.w3.org/2000/svg">
  <defs>
    <linearGradient id="paint0_linear_31_260" x1="17" y1="8.06897" x2="44.9807" y2="22.9454" gradientUnits="userSpaceOnUse" gradientTransform="matrix(1, 0, 0, 1, 162.237915, 166.283127)">
      <stop stop-color="#2B5FDA"/>
      <stop offset="1" stop-color="#B198FF"/>
    </linearGradient>
  </defs>
  <path d="M 191.798 192.283 L 187.694 192.283 L 180.83 181.891 L 180.83 192.283 L 176.726 192.283 L 176.726 175.435 L 180.83 175.435 L 187.694 185.875 L 187.694 175.435 L 191.798 175.435 L 191.798 192.283 Z M 204.541 192.283 L 198.877 184.843 L 198.877 192.283 L 194.773 192.283 L 194.773 175.435 L 198.877 175.435 L 198.877 182.827 L 204.493 175.435 L 209.317 175.435 L 202.789 183.691 L 209.557 192.283 L 204.541 192.283 Z" fill="url(#paint0_linear_31_260)" style="opacity: 0.7;"/>
  <path d="M 164.806 184.926 L 171.134 187.289 L 171.134 189.769 L 162.804 186.166 L 162.804 184.467 L 164.806 184.926 Z M 171.134 183.002 L 164.806 185.404 L 162.804 185.834 L 162.804 184.125 L 171.134 180.531 L 171.134 183.002 Z M 219.552 177.064 L 214.181 192.504 L 212.218 192.504 L 217.59 177.064 L 219.552 177.064 Z M 227.511 185.316 L 221.086 182.982 L 221.086 180.521 L 229.562 184.125 L 229.562 185.844 L 227.511 185.316 Z M 221.086 187.318 L 227.521 184.916 L 229.562 184.457 L 229.562 186.166 L 221.086 189.769 L 221.086 187.318 Z" fill="#A4A4A4"/>
</svg>